<?xml version="1.0" encoding="utf-8"?>
<!-- Generator: Adobe Adobe Illustrator 24.2.0, SVG Export Plug-In . SVG Version: 6.00 Build 0)  -->
<svg version="1.1" id="Layer_3" xmlns="http://www.w3.org/2000/svg" xmlns:xlink="http://www.w3.org/1999/xlink" x="0px" y="0px"
	 width="140px" height="140px" viewBox="0 0 140 140" style="enable-background:new 0 0 140 140;" xml:space="preserve">
<style type="text/css">
	.st0{fill:#394039;}
</style>
<g>
	<g>
		<path class="st0" d="M118.78,54.62c-2.97,0.05-5.95,0.01-9.18,0.01c-0.89-1.59-1.81-3.15-2.66-4.74
			c-4.07-7.62-8.09-15.27-12.21-22.88c-1.08-1.99-2.58-3.83-5.15-2.39c-2.38,1.34-1.99,3.56-1.1,5.71c0.19,0.46,0.44,0.9,0.67,1.34
			c2.96,5.58,5.92,11.16,8.87,16.74c1.04,1.96,2.08,3.93,3.22,6.09c-18.8,0-36.83,0-55.34,0c3.6-7.26,7-14.08,10.37-20.91
			c0.73-1.49,1.42-3,2.04-4.54c0.8-1.99,0.28-3.68-1.66-4.61c-2.08-0.99-3.5,0.21-4.58,1.85c-0.54,0.83-0.87,1.79-1.32,2.68
			c-4.33,8.58-8.67,17.16-12.97,25.66c-3.8,0-7.29-0.11-10.77,0.05c-1.4,0.07-3.14,0.32-4.08,1.19c-3.51,3.24-2.51,14.23,1.16,17.41
			c1.25,1.08,2.37,2.71,2.78,4.28c3.1,11.9,6.04,23.85,8.98,35.79c1.63,6.61,1.59,6.68,8.29,6.59c20.64-0.27,41.28-0.64,61.92-0.83
			c2.99-0.03,4.18-1.53,4.81-3.99c0.86-3.38,1.64-6.78,2.6-10.55c2.46-9.75,4.74-19.13,7.13-28.47c0.3-1.16,0.93-2.56,1.86-3.18
			c3.47-2.33,4.22-5.86,4.56-9.55C127.56,57.89,124.26,54.53,118.78,54.62z M36.74,87.52c-0.98-4.33-2.13-8.61-3.3-13.28
			c4.64,0,8.86,0,13.7,0c0.78,4.93,1.59,10.01,2.47,15.57c-3.26,0-6.04,0-8.82,0C38.18,89.97,37.16,89.35,36.74,87.52z
			 M43.02,112.51c-1.28-5-2.62-10.24-4.08-15.92c3.92,0,7.46,0,11.68,0c0.42,2.43,0.88,5.15,1.35,7.87
			c0.48,3.14,0.84,5.42,1.27,8.06C49.78,112.51,46.69,112.51,43.02,112.51z M54.28,73.95c3.88,0,7.48,0,11.09,0
			c1.92,0.05,2.89,0.11,4.16,0.17c0,5.16,0,10.18,0,15.44c-4.27,0-8.33,0-12.78,0C55.95,84.47,55.16,79.47,54.28,73.95z
			 M69.85,103.54c0,3.44,0,5.92,0,8.84c-3.08,0-5.97,0-9.47,0c-0.81-4.92-1.68-10.21-2.6-15.86c4.14,0,7.84,0,12.07,0
			C69.85,98.99,69.85,101.26,69.85,103.54z M87.78,109.21l-0.29,2.76l-3.53,0.11l0,0c-2.18,0.11-4.4,0.01-6.78,0.01
			c0-5.29,0-10.33,0-15.61c3.96,0,7.7,0,12.09,0C88.76,100.85,88.27,105.03,87.78,109.21L87.78,109.21z M90.54,89.38
			c-4.39,0-8.75,0-13.59,0c0-2.34,0-4.62,0-6.91c0-3.28,0-5.59,0-8.2c5.29,0,10.35,0,15.72,0C91.96,79.25,91.28,84.12,90.54,89.38z
			 M104.48,111.54c-1.56,0.11-2.85,0.2-4.14,0.29c-2.5,0-4.13,0-5.96,0c0.76-5.23,1.46-10.11,2.21-15.29c3.78,0,7.35,0,11.52,0
			C106.89,101.57,105.71,106.46,104.48,111.54z M109.81,89.77c-3.56,0-6.78,0.06-9.98-0.06l0.02,0.02l-2.1-0.07l0.14-1.3
			c0,0-0.01-0.01-0.01-0.01c0.69-5.31,1.32-9.71,1.97-14.23c4.63,0,8.91,0,13.8,0C112.34,79.47,111.1,84.52,109.81,89.77z
			 M119.15,66.84c-2.2,0-4,0-5.81,0c-28.92,0-56.88,0-85.19,0c0-1.76,0-3.13,0-4.76c30.25,0,60.35,0,91,0
			C119.15,63.62,119.15,65.09,119.15,66.84z"/>
	</g>
</g>
</svg>
