<?xml version="1.0" encoding="utf-8"?>
<!-- Generator: Adobe Illustrator 27.0.1, SVG Export Plug-In . SVG Version: 6.00 Build 0)  -->
<svg version="1.1" id="Layer_3" xmlns="http://www.w3.org/2000/svg" xmlns:xlink="http://www.w3.org/1999/xlink" x="0px" y="0px"
	 viewBox="0 0 140 140" style="enable-background:new 0 0 140 140;" xml:space="preserve">
<style type="text/css">
	.st0{fill:#EFECE6;}
</style>
<g>
	<g>
		<path class="st0" d="M118.8,54.6c-3,0-5.9,0-9.2,0c-0.9-1.6-1.8-3.2-2.7-4.7c-4.1-7.6-8.1-15.3-12.2-22.9c-1.1-2-2.6-3.8-5.2-2.4
			c-2.4,1.3-2,3.6-1.1,5.7c0.2,0.5,0.4,0.9,0.7,1.3c3,5.6,5.9,11.2,8.9,16.7c1,2,2.1,3.9,3.2,6.1c-18.8,0-36.8,0-55.3,0
			c3.6-7.3,7-14.1,10.4-20.9c0.7-1.5,1.4-3,2-4.5c0.8-2,0.3-3.7-1.7-4.6c-2.1-1-3.5,0.2-4.6,1.9c-0.5,0.8-0.9,1.8-1.3,2.7
			c-4.3,8.6-8.7,17.2-13,25.7c-3.8,0-7.3-0.1-10.8,0c-1.4,0.1-3.1,0.3-4.1,1.2c-3.5,3.2-2.5,14.2,1.2,17.4c1.2,1.1,2.4,2.7,2.8,4.3
			c3.1,11.9,6,23.8,9,35.8c1.6,6.6,1.6,6.7,8.3,6.6c20.6-0.3,41.3-0.6,61.9-0.8c3,0,4.2-1.5,4.8-4c0.9-3.4,1.6-6.8,2.6-10.6
			c2.5-9.8,4.7-19.1,7.1-28.5c0.3-1.2,0.9-2.6,1.9-3.2c3.5-2.3,4.2-5.9,4.6-9.5C127.6,57.9,124.3,54.5,118.8,54.6z M36.7,87.5
			c-1-4.3-2.1-8.6-3.3-13.3c4.6,0,8.9,0,13.7,0c0.8,4.9,1.6,10,2.5,15.6c-3.3,0-6,0-8.8,0C38.2,90,37.2,89.3,36.7,87.5z M43,112.5
			c-1.3-5-2.6-10.2-4.1-15.9c3.9,0,7.5,0,11.7,0c0.4,2.4,0.9,5.2,1.3,7.9c0.5,3.1,0.8,5.4,1.3,8.1C49.8,112.5,46.7,112.5,43,112.5z
			 M54.3,73.9c3.9,0,7.5,0,11.1,0c1.9,0.1,2.9,0.1,4.2,0.2c0,5.2,0,10.2,0,15.4c-4.3,0-8.3,0-12.8,0C56,84.5,55.2,79.5,54.3,73.9z
			 M69.8,103.5c0,3.4,0,5.9,0,8.8c-3.1,0-6,0-9.5,0c-0.8-4.9-1.7-10.2-2.6-15.9c4.1,0,7.8,0,12.1,0C69.8,99,69.8,101.3,69.8,103.5z
			 M87.8,109.2l-0.3,2.8l-3.5,0.1l0,0c-2.2,0.1-4.4,0-6.8,0c0-5.3,0-10.3,0-15.6c4,0,7.7,0,12.1,0C88.8,100.8,88.3,105,87.8,109.2
			L87.8,109.2z M90.5,89.4c-4.4,0-8.8,0-13.6,0c0-2.3,0-4.6,0-6.9c0-3.3,0-5.6,0-8.2c5.3,0,10.3,0,15.7,0
			C92,79.2,91.3,84.1,90.5,89.4z M104.5,111.5c-1.6,0.1-2.8,0.2-4.1,0.3c-2.5,0-4.1,0-6,0c0.8-5.2,1.5-10.1,2.2-15.3
			c3.8,0,7.3,0,11.5,0C106.9,101.6,105.7,106.5,104.5,111.5z M109.8,89.8c-3.6,0-6.8,0.1-10-0.1l0,0l-2.1-0.1l0.1-1.3l0,0
			c0.7-5.3,1.3-9.7,2-14.2c4.6,0,8.9,0,13.8,0C112.3,79.5,111.1,84.5,109.8,89.8z M119.2,66.8c-2.2,0-4,0-5.8,0
			c-28.9,0-56.9,0-85.2,0c0-1.8,0-3.1,0-4.8c30.2,0,60.3,0,91,0C119.2,63.6,119.2,65.1,119.2,66.8z"/>
	</g>
</g>
</svg>
