<?xml version="1.0" encoding="utf-8"?>
<!-- Generator: Adobe Illustrator 27.0.1, SVG Export Plug-In . SVG Version: 6.00 Build 0)  -->
<svg version="1.1" id="Layer_1" xmlns="http://www.w3.org/2000/svg" xmlns:xlink="http://www.w3.org/1999/xlink" x="0px" y="0px"
	 viewBox="0 0 519.1 531.6" style="enable-background:new 0 0 519.1 531.6;" xml:space="preserve">
<style type="text/css">
	.st0{opacity:0.82;fill:#D9D9D1;enable-background:new    ;}
	.st1{fill:#343B34;}
	.st2{fill:#FFFFFF;}
</style>
<circle class="st0" cx="259.5" cy="267.8" r="259.5"/>
<g>
	<path class="st1" d="M183.2,119.6l0.8,2.8l1.5,3.1l1.9,2.4l1.7,2.4l1.9,2c0.2-0.1,0.4-0.2,0.5-0.3c6.2-2.9,13.2-6.2,21.1-9.9
		c7.9-3.7,15.9-7,24.1-9.7s15.5-4.1,22-4.1c4,0,7.4,0.6,10.2,1.7c2.8,1.1,4.2,3.8,4.2,8c0,3.2-1.2,8.2-3.7,14.8
		c-2.5,6.6-5.5,13.6-9.2,20.9s-7.5,13.8-11.3,19.4c-3.2,4.7-5.9,7.9-8.1,9.9l12.8,21.2c3.6-4.5,7.1-8.9,10.6-13.3
		c7.2-9.1,13.6-17.5,19.2-25.2c3.1-4.5,6.7-9.8,10.9-15.8c4.2-6,6.2-11.7,6.2-17.2s-2.2-10.4-6.7-14.8c-4.5-4.4-9.7-8-15.7-10.9
		s-11.3-4.9-16-5.8c-1.9-0.7-3.5-1-5.1-1H249c-1.6,0.3-3.3,0.6-5.3,0.7c-2,0.2-3.8,0.4-5.3,0.7c-2.2,0.3-4.4,0.7-6.7,1
		c-2.3,0.3-4.6,0.8-6.7,1.5c-5.9,1.3-10.9,2.6-15.3,3.9c-4.3,1.3-9.1,3.1-14.4,5.3c-3.9,1.6-8,3.3-12.4,5.3L183.2,119.6L183.2,119.6
		z"/>
	<path class="st1" d="M135.6,223.8c-4.6,0.3-8.5,1.5-11.6,3.4c-3.1,1.9-6.8,3.7-11.1,5.3c-2.8,1-7,2.5-12.7,4.6
		c-5.7,2.1-11.4,4-17.1,5.6c-5.7,1.6-10.1,2.4-13.2,2.4c-4.6,0-6.9-1.9-6.9-5.8c0-4.9,2.5-10.6,7.6-17.2
		c5.1-6.6,11.2-13.3,18.3-19.9c7.1-6.6,13.8-12.5,20.1-17.5c6.3-5,10.9-8.5,13.7-10.4c10.8-8.1,21.9-15.6,33.3-22.6
		c9.8-6,20-11.6,30.5-17l-6.8-10.2l-2.1-3.7c-0.2,0.1-0.5,0.2-0.7,0.3c-6.8,3.1-13.1,5.9-19,8.5c-4.9,2.3-12.3,6.3-22,12.1
		s-20.3,12.7-31.7,20.6c-11.4,7.9-22.3,16.3-32.6,25c-10.3,8.7-18.8,17.1-25.5,25c-6.6,7.9-10,15-10,21.1c0,7.1,3.5,12.5,10.4,16
		c6.9,3.6,13.3,5.3,19.2,5.3c6.8,0,14.7-1.5,23.8-4.4c9.1-2.9,17.9-6.6,26.4-10.9c8.5-4.4,15-8.5,19.7-12.4l2.8-2.4h-2.8
		L135.6,223.8L135.6,223.8z"/>
	<path class="st1" d="M426.7,140.3c-3.4-3.2-7.3-5.7-11.8-7.5c-4.5-1.8-8.1-2.7-10.9-2.7c-1.2,0-2.6,0.1-4.2,0.2
		c-1.5,0.2-3.1,0.4-4.6,0.7l-3.7,1c-13.3,1.9-25.7,6.4-37.2,13.4c-11.6,7-22.3,14.6-32.2,23.1c-9.9,8.4-19,17.1-27.3,26
		c-8.3,8.9-15.7,16.6-22.2,23.1c-0.9,1-2.8,2.8-5.5,5.6c-2.8,2.8-5.4,5.5-7.9,8.2c-2.5,2.8-4.2,4.8-5.1,6.1c-7.1,0-12.4,1.5-16,4.6
		c-3.6,3.1-7.6,6.9-12.3,11.4l0.5,3.4l6.5-0.5l-0.5,0.5c-2.2,5.8-6.6,12.4-13.4,19.7c-6.8,7.3-12.3,13.7-16.7,19.2
		c-5.2,7.1-10.4,14.5-15.5,22.1c-5.1,7.6-10.4,15.1-16,22.6c0.6-3.9,2.9-8.8,6.7-14.8c3.9-6,6.7-10.9,8.6-14.8l11.1-21.9
		c1.5-2.3,3.1-4.6,4.6-7c1.5-2.4,2.5-4.9,2.8-7.5l1.4-0.5c4.3-8.7,9.6-17.8,16-27.2c6.3-9.4,13-18.8,20.1-28.2c0,0,0,0,0.1-0.1
		l-11.7-18.1c-2.8,4.4-5.4,8.8-7.8,13.3c-2.5,4.5-4,7.8-4.6,9.7l-1.4,1c-1.6,0-2,0.8-1.4,2.4L200.4,251c-0.3,0-0.5,0.5-0.5,1.5
		l0.9,1v0.5l-2.3-0.5l-0.5,2.9l-1.9,2.9c-1.6,2.3-3,4.8-4.4,7.5s-2.9,5.4-4.4,8c-4,6.8-8,13.5-12,20.1c-4,6.6-7.9,13.5-11.6,20.6
		c-4,7.1-7.8,14.6-11.3,22.3c-3.6,7.8-7.2,15.5-10.9,23.3c-0.3,0.3-0.5,1.1-0.5,2.4c0.3,3.2,2.8,6.2,7.4,9c4.6,2.8,8.2,4.1,10.6,4.1
		c2.1,0,3.8-0.4,4.9-1.2c1.1-0.8,2.1-1.9,3-3.2c3.7-5.2,7-10.6,9.9-16.3c2.9-5.7,5.9-11.1,9-16.3c3.4-4.9,7-9.5,10.9-14.1
		c3.9-4.5,7.6-9.2,11.3-14.1c5.6-7.1,10.9-14.3,16.2-21.6c5.2-7.3,10.8-14.2,16.7-20.6c0.9,2.3,2,5.2,3.2,8.7
		c1.2,3.6,2.5,7.5,3.7,11.6c1.5,4.5,3,8.9,4.4,13.1c1.4,4.2,2.4,7.1,3,8.7c3.4,9.4,8.6,20.8,15.5,34.2c6.9,13.4,15,27,24.3,40.8
		c9.2,13.8,18.9,26,28.9,36.7c10,10.7,19.8,18,29.4,21.9c2.8,1.3,5.9,2.2,9.2,2.7c3.4,0.5,6.5,0.7,9.2,0.7c4,0,9.6-1,16.7-3.2
		c7.1-2.1,14-4.9,20.6-8.2c6.6-3.4,10.9-7,12.7-10.9c1.5-2.6,2.5-5.2,3-7.8c0.5-2.6,0.7-5,0.7-7.3c0-1.9-0.1-4-0.2-6.1
		c-0.2-2.1-0.2-4.3-0.2-6.5s-0.1-4.9-0.2-8c-0.2-3.1-0.4-5.8-0.7-8c-0.6-5.5-1.4-8.7-2.3-9.7s-1.9-1.1-2.8-0.5
		c-0.9,0.6-1.7,1.5-2.3,2.4c0.3,4.2-0.3,10.1-1.9,17.7c-1.5,7.6-3.5,15-6,22.1s-5.2,12-8.3,14.6c-4.9,4.5-11.1,6.8-18.5,6.8
		c-8.6,0-17-3.2-25.2-9.7c-8.2-6.5-16-14.9-23.4-25.2c-7.4-10.4-14.3-21.5-20.8-33.5s-12.3-23.5-17.4-34.5
		c-5.1-11-9.3-20.2-12.7-27.7c-3.1-6.8-6.4-14.7-10-23.8c-3.5-9.1-5.3-17.8-5.3-26.2c0-4.2,0.6-8.2,1.9-12.1
		c1.2-3.9,3.4-7.4,6.5-10.7c11.4-12.6,22.4-23.9,33.1-34c10.6-10,22.1-19.1,34.5-27.2c12.3-8.1,26.5-15.5,42.6-22.3
		c3.7-1.6,7.6-3,11.6-4.1c4-1.1,8-1.7,12-1.7c6.2,0,10.1,1.3,11.8,3.9c1.7,2.6,3.5,6.6,5.3,12.1h1.4l1.9,1.9c0-1.6,0.1-2.8,0.5-3.4
		c0.3-0.6,0.6-1.3,0.9-1.9c0.3-0.6,0.5-1.5,0.5-2.4v-1C431.8,147.6,430.1,143.5,426.7,140.3L426.7,140.3z"/>
</g>
<path class="st2" d="M191.5,102.4c-3.4-4.8-13.9-17.6-22.2-12.7c-8.3,4.9-0.2,18.8,3.1,23.8c59.6,90.3,238.3,361.1,238.3,361.1
	S212.8,133.2,191.5,102.4z M198,133.6c-4.3,2.8-11-5.8-13.3-10.3c-1.5-3-5.4-11.2-1.5-13.7c4.2-2.7,9,2.3,11.6,6.6
	C197.4,120.2,201.8,131,198,133.6L198,133.6z"/>
<path class="st1" d="M384.8,435.9c0,0,0.9-0.1,1.9-0.2c0.6-0.1,1.6-0.3,1.6-0.3l5,8.6c0,0-0.1,0-1.2,0.4c-0.9,0.3-1.3,0.4-1.3,0.4
	L384.8,435.9L384.8,435.9z"/>
<path class="st1" d="M253.7,237.9c0,0,0.1-0.6,5.5-6.5c6.9-7.6,7.2-7.6,7.2-7.6l6.1,12.9c0,0-3,6.5-3.6,8.9
	c-0.7,2.8-1.4,11.9-1.4,11.9l-2.6,1.8L253.7,237.9L253.7,237.9z"/>
<polygon class="st1" points="199.1,128.5 206.2,125.1 198.1,112 193.1,114 "/>
<path class="st1" d="M182.6,118.5l0.5-0.2l0.2,1.2l0.4,1.5v0.2c0,0-0.5-1.3-0.7-1.7C182.9,119.3,182.6,118.5,182.6,118.5z"/>
</svg>
